# xmcd CD database file
#
# Track frame offsets:
#	182
#	23720
#	41692
#	52005
#	73845
#	88110
#	107297
#	125630
#	140200
#	148145
#
# Disc length: 2333 seconds
#
# Revision: 2
# Processed by: cddbd v1.4b41PL1 Copyright (c) Steve Scherf et al.
# Submitted via: Feurio! 1.50.2ß - http://www.feurio.com
#
DISCID=8e09090a,98091b0a
DTITLE=Eric Burdon - The Comeback Soundtrack
DYEAR=1900
DGENRE=
TTITLE0=No More Elmore
TTITLE1=The Road
TTITLE2=Crawling King Snake
TTITLE3=Take It Easy
TTITLE4=Dey Won't
TTITLE5=Wall Of Silence
TTITLE6=Streetwalker
TTITLE7=It Hurts Me Too
TTITLE8=Light Out
TTITLE9=Bird On The Beach
EXTD=
EXTT0=
EXTT1=
EXTT2=
EXTT3=
EXTT4=
EXTT5=
EXTT6=
EXTT7=
EXTT8=
EXTT9=
PLAYORDER=
